# xmcd CD database file
#
# Track frame offsets:
#	150
#	14750
#	32200
#	41075
#	53612
#	63375
#	92550
#	108950
#	122200
#	135587
#	147512
#	160837
#	173350
#
# Disc length: 2508 seconds
#
# Revision: 4
# Processed by: cddbd v1.5.2PL0 Copyright (c) Steve Scherf et al.
# Submitted via: CDex 1.70beta2
#
DISCID=ae09ca0d
DTITLE=Charles, Ray - Double Gold [CD1)
DYEAR=1994
DGENRE=Rhythm and Blues
TTITLE0=Born To Loose
TTITLE1=Ruby
TTITLE2=Hit The Road Jack
TTITLE3=Yesterday
TTITLE4=Busted
TTITLE5=What'd I Say
TTITLE6=Georgia
TTITLE7=Crying Time Again
TTITLE8=Let's Get Stoned
TTITLE9=Together Again
TTITLE10=Elenor Rigby
TTITLE11=I Don't Need No Doctor
TTITLE12=Here We Go Again
EXTD=YEAR: 1994
EXTT0=
EXTT1=
EXTT2=
EXTT3=
EXTT4=
EXTT5=
EXTT6=
EXTT7=
EXTT8=
EXTT9=
EXTT10=
EXTT11=
EXTT12=
PLAYORDER=
